<svg xmlns="http://www.w3.org/2000/svg" viewBox="-30 25 340 180">
  <!-- IC chip legs — left -->
  <g stroke="#555" stroke-width="2" stroke-linecap="round" fill="none">
    <line x1="-24" y1="52" x2="0" y2="52"/>
    <line x1="-24" y1="72" x2="0" y2="72"/>
    <line x1="-24" y1="92" x2="0" y2="92"/>
    <line x1="-24" y1="112" x2="0" y2="112"/>
    <line x1="-24" y1="132" x2="0" y2="132"/>
    <line x1="-24" y1="152" x2="0" y2="152"/>
    <line x1="-24" y1="172" x2="0" y2="172"/>
  </g>
  <!-- IC chip legs — right -->
  <g stroke="#555" stroke-width="2" stroke-linecap="round" fill="none">
    <line x1="280" y1="52" x2="304" y2="52"/>
    <line x1="280" y1="72" x2="304" y2="72"/>
    <line x1="280" y1="92" x2="304" y2="92"/>
    <line x1="280" y1="112" x2="304" y2="112"/>
    <line x1="280" y1="132" x2="304" y2="132"/>
    <line x1="280" y1="152" x2="304" y2="152"/>
    <line x1="280" y1="172" x2="304" y2="172"/>
  </g>
  <!-- Chip body -->
  <rect x="0" y="30" width="280" height="170" rx="6" fill="#1a1a1a" stroke="#444" stroke-width="1.5"/>
  <!-- Notch -->
  <path d="M120,30 A20,20 0 0,1 160,30" fill="#1a1a1a" stroke="none"/>
  <path d="M120,30 A20,20 0 0,0 160,30" fill="none" stroke="#555" stroke-width="1.5"/>
  <!-- Dead pixels -->
  <rect x="8" y="38" width="7" height="7" rx="1" fill="#2a0000"/>
  <rect x="17" y="38" width="4" height="4" rx="0.5" fill="#2a0000"/>
  <rect x="8" y="47" width="4" height="4" rx="0.5" fill="#2a0000"/>
  <!-- Scan line -->
  <line x1="0" y1="120" x2="280" y2="120" stroke="#ff3a20" stroke-width="1" opacity="0.4"/>
  <!-- Glitch bars -->
  <rect x="62" y="55" width="38" height="5" rx="1" fill="#ff3a20" opacity="0.18"/>
  <rect x="48" y="62" width="55" height="3" rx="1" fill="#ff3a20" opacity="0.12"/>
  <rect x="180" y="150" width="24" height="4" rx="1" fill="#ff3a20" opacity="0.14"/>
  <rect x="200" y="156" width="14" height="3" rx="1" fill="#ff3a20" opacity="0.10"/>
  <!-- Wordmark -->
  <text x="14" y="122" font-family="'JetBrains Mono','Courier New',monospace" font-size="58" font-weight="700" letter-spacing="-2" fill="#e0e0e0">core</text>
  <text x="160" y="122" font-family="'JetBrains Mono','Courier New',monospace" font-size="58" font-weight="700" letter-spacing="-2" fill="#ff6040" transform="translate(160,122) rotate(-0.6) translate(-160,-122)">dump</text>
  <!-- Crack line -->
  <line x1="153" y1="72" x2="161" y2="132" stroke="#ff3a20" stroke-width="1" opacity="0.35" stroke-dasharray="2 3"/>
  <!-- Memory address -->
  <text x="14" y="155" font-family="'JetBrains Mono','Courier New',monospace" font-size="11" fill="#ff6040" opacity="0.7">0x00007ffd3a</text>
  <text x="116" y="155" font-family="'JetBrains Mono','Courier New',monospace" font-size="11" fill="#888">c8f0 → SIGSEGV</text>
  <!-- Hex dump -->
  <text x="14" y="174" font-family="'JetBrains Mono','Courier New',monospace" font-size="9" fill="#888">48 65 6c 6c 6f 20 77 6f 72 6c 64 00 00 00 ff ff</text>
  <text x="14" y="186" font-family="'JetBrains Mono','Courier New',monospace" font-size="9" fill="#888">41 42 43 44 45 46 47 48 [CORRUPTED ██████]</text>
</svg>
